<svg xmlns="http://www.w3.org/2000/svg" xmlns:xlink="http://www.w3.org/1999/xlink" width="500" zoomAndPan="magnify" viewBox="0 0 375 374.999991" height="500" preserveAspectRatio="xMidYMid meet" version="1.0"><defs><clipPath id="id1"><path d="M 49.886719 0 L 375 0 L 375 349.628906 L 49.886719 349.628906 Z M 49.886719 0 " clip-rule="nonzero"/></clipPath><clipPath id="id2"><path d="M 458.636719 145.253906 C 458.636719 148.597656 458.554688 151.941406 458.390625 155.28125 C 458.226562 158.621094 457.980469 161.957031 457.652344 165.285156 C 457.324219 168.613281 456.917969 171.933594 456.425781 175.242188 C 455.933594 178.550781 455.363281 181.84375 454.710938 185.125 C 454.058594 188.40625 453.324219 191.667969 452.511719 194.914062 C 451.699219 198.15625 450.808594 201.378906 449.835938 204.582031 C 448.867188 207.78125 447.816406 210.957031 446.691406 214.105469 C 445.5625 217.253906 444.359375 220.375 443.082031 223.464844 C 441.800781 226.554688 440.445312 229.609375 439.015625 232.636719 C 437.585938 235.660156 436.082031 238.644531 434.503906 241.59375 C 432.929688 244.542969 431.28125 247.453125 429.5625 250.324219 C 427.839844 253.191406 426.050781 256.015625 424.195312 258.796875 C 422.335938 261.578125 420.410156 264.3125 418.417969 267 C 416.425781 269.6875 414.367188 272.320312 412.246094 274.90625 C 410.125 277.492188 407.941406 280.023438 405.695312 282.503906 C 403.449219 284.980469 401.140625 287.402344 398.777344 289.769531 C 396.414062 292.132812 393.992188 294.4375 391.511719 296.683594 C 389.035156 298.929688 386.503906 301.117188 383.917969 303.238281 C 381.332031 305.359375 378.695312 307.417969 376.007812 309.410156 C 373.320312 311.402344 370.589844 313.328125 367.808594 315.183594 C 365.027344 317.042969 362.199219 318.832031 359.332031 320.550781 C 356.464844 322.269531 353.554688 323.917969 350.605469 325.496094 C 347.652344 327.074219 344.667969 328.574219 341.644531 330.007812 C 338.621094 331.4375 335.5625 332.792969 332.472656 334.070312 C 329.382812 335.351562 326.261719 336.554688 323.113281 337.679688 C 319.964844 338.808594 316.789062 339.855469 313.589844 340.828125 C 310.386719 341.800781 307.164062 342.691406 303.921875 343.503906 C 300.675781 344.316406 297.414062 345.046875 294.132812 345.703125 C 290.851562 346.355469 287.558594 346.925781 284.25 347.417969 C 280.941406 347.90625 277.625 348.316406 274.292969 348.644531 C 270.964844 348.972656 267.632812 349.21875 264.289062 349.382812 C 260.949219 349.546875 257.605469 349.628906 254.261719 349.628906 C 250.917969 349.628906 247.574219 349.546875 244.234375 349.382812 C 240.894531 349.21875 237.558594 348.972656 234.230469 348.644531 C 230.902344 348.316406 227.582031 347.90625 224.273438 347.417969 C 220.964844 346.925781 217.671875 346.355469 214.390625 345.703125 C 211.109375 345.046875 207.847656 344.316406 204.601562 343.503906 C 201.359375 342.691406 198.136719 341.800781 194.933594 340.828125 C 191.734375 339.855469 188.558594 338.808594 185.410156 337.679688 C 182.261719 336.554688 179.140625 335.351562 176.050781 334.070312 C 172.960938 332.792969 169.90625 331.4375 166.878906 330.007812 C 163.855469 328.574219 160.871094 327.074219 157.921875 325.496094 C 154.972656 323.917969 152.0625 322.269531 149.191406 320.550781 C 146.324219 318.832031 143.5 317.042969 140.71875 315.183594 C 137.9375 313.328125 135.203125 311.402344 132.515625 309.410156 C 129.828125 307.417969 127.195312 305.359375 124.609375 303.238281 C 122.023438 301.117188 119.492188 298.929688 117.011719 296.683594 C 114.535156 294.4375 112.113281 292.132812 109.746094 289.769531 C 107.382812 287.402344 105.078125 284.980469 102.832031 282.503906 C 100.585938 280.023438 98.398438 277.492188 96.277344 274.90625 C 94.15625 272.320312 92.097656 269.6875 90.105469 267 C 88.113281 264.3125 86.1875 261.578125 84.332031 258.796875 C 82.472656 256.015625 80.683594 253.191406 78.964844 250.324219 C 77.246094 247.453125 75.597656 244.542969 74.019531 241.59375 C 72.441406 238.644531 70.941406 235.660156 69.507812 232.636719 C 68.078125 229.609375 66.722656 226.554688 65.445312 223.464844 C 64.164062 220.375 62.960938 217.253906 61.835938 214.105469 C 60.707031 210.957031 59.660156 207.78125 58.6875 204.582031 C 57.714844 201.378906 56.824219 198.15625 56.011719 194.914062 C 55.199219 191.667969 54.46875 188.40625 53.8125 185.125 C 53.160156 181.84375 52.589844 178.550781 52.097656 175.242188 C 51.609375 171.933594 51.199219 168.613281 50.871094 165.285156 C 50.542969 161.957031 50.296875 158.621094 50.132812 155.28125 C 49.96875 151.941406 49.886719 148.597656 49.886719 145.253906 C 49.886719 141.910156 49.96875 138.566406 50.132812 135.226562 C 50.296875 131.882812 50.542969 128.550781 50.871094 125.222656 C 51.199219 121.890625 51.609375 118.574219 52.097656 115.265625 C 52.589844 111.957031 53.160156 108.664062 53.8125 105.382812 C 54.46875 102.101562 55.199219 98.839844 56.011719 95.59375 C 56.824219 92.351562 57.714844 89.128906 58.6875 85.925781 C 59.660156 82.726562 60.707031 79.550781 61.835938 76.402344 C 62.960938 73.253906 64.164062 70.132812 65.445312 67.042969 C 66.722656 63.953125 68.078125 60.894531 69.507812 57.871094 C 70.941406 54.847656 72.441406 51.863281 74.019531 48.910156 C 75.597656 45.960938 77.246094 43.050781 78.964844 40.183594 C 80.683594 37.316406 82.472656 34.488281 84.332031 31.707031 C 86.1875 28.925781 88.113281 26.195312 90.105469 23.507812 C 92.097656 20.820312 94.15625 18.183594 96.277344 15.597656 C 98.398438 13.015625 100.585938 10.480469 102.832031 8.003906 C 105.078125 5.523438 107.382812 3.105469 109.746094 0.738281 C 112.113281 -1.625 114.535156 -3.933594 117.011719 -6.179688 C 119.492188 -8.425781 122.023438 -10.609375 124.609375 -12.730469 C 127.195312 -14.851562 129.828125 -16.910156 132.515625 -18.902344 C 135.203125 -20.894531 137.9375 -22.820312 140.71875 -24.679688 C 143.5 -26.535156 146.324219 -28.324219 149.191406 -30.042969 C 152.0625 -31.765625 154.972656 -33.414062 157.921875 -34.988281 C 160.871094 -36.566406 163.855469 -38.070312 166.878906 -39.5 C 169.90625 -40.929688 172.960938 -42.285156 176.050781 -43.566406 C 179.140625 -44.84375 182.261719 -46.046875 185.410156 -47.175781 C 188.558594 -48.300781 191.734375 -49.351562 194.933594 -50.320312 C 198.136719 -51.292969 201.359375 -52.183594 204.601562 -52.996094 C 207.847656 -53.808594 211.109375 -54.542969 214.390625 -55.195312 C 217.671875 -55.847656 220.964844 -56.417969 224.273438 -56.910156 C 227.582031 -57.398438 230.902344 -57.808594 234.230469 -58.136719 C 237.558594 -58.464844 240.894531 -58.710938 244.234375 -58.875 C 247.574219 -59.039062 250.917969 -59.121094 254.261719 -59.121094 C 257.605469 -59.121094 260.949219 -59.039062 264.289062 -58.875 C 267.632812 -58.710938 270.964844 -58.464844 274.292969 -58.136719 C 277.625 -57.808594 280.941406 -57.398438 284.25 -56.910156 C 287.558594 -56.417969 290.851562 -55.847656 294.132812 -55.195312 C 297.414062 -54.542969 300.675781 -53.808594 303.921875 -52.996094 C 307.164062 -52.183594 310.386719 -51.292969 313.589844 -50.320312 C 316.789062 -49.351562 319.964844 -48.300781 323.113281 -47.175781 C 326.261719 -46.046875 329.382812 -44.84375 332.472656 -43.566406 C 335.5625 -42.285156 338.621094 -40.929688 341.644531 -39.5 C 344.667969 -38.070312 347.652344 -36.566406 350.605469 -34.988281 C 353.554688 -33.414062 356.464844 -31.765625 359.332031 -30.042969 C 362.199219 -28.324219 365.027344 -26.535156 367.808594 -24.679688 C 370.589844 -22.820312 373.320312 -20.894531 376.007812 -18.902344 C 378.695312 -16.910156 381.332031 -14.851562 383.917969 -12.730469 C 386.503906 -10.609375 389.035156 -8.425781 391.511719 -6.179688 C 393.992188 -3.933594 396.414062 -1.625 398.777344 0.738281 C 401.140625 3.105469 403.449219 5.523438 405.695312 8.003906 C 407.941406 10.480469 410.125 13.015625 412.246094 15.597656 C 414.367188 18.183594 416.425781 20.820312 418.417969 23.507812 C 420.410156 26.195312 422.335938 28.925781 424.195312 31.707031 C 426.050781 34.488281 427.839844 37.316406 429.5625 40.183594 C 431.28125 43.050781 432.929688 45.960938 434.503906 48.910156 C 436.082031 51.863281 437.585938 54.847656 439.015625 57.871094 C 440.445312 60.894531 441.800781 63.953125 443.082031 67.042969 C 444.359375 70.132812 445.5625 73.253906 446.691406 76.402344 C 447.816406 79.550781 448.867188 82.726562 449.835938 85.925781 C 450.808594 89.128906 451.699219 92.351562 452.511719 95.59375 C 453.324219 98.839844 454.058594 102.101562 454.710938 105.382812 C 455.363281 108.664062 455.933594 111.957031 456.425781 115.265625 C 456.917969 118.574219 457.324219 121.890625 457.652344 125.222656 C 457.980469 128.550781 458.226562 131.882812 458.390625 135.226562 C 458.554688 138.566406 458.636719 141.910156 458.636719 145.253906 Z M 458.636719 145.253906 " clip-rule="nonzero"/></clipPath><linearGradient x1="0.0723165" gradientTransform="matrix(408.74999, 0, 0, 408.74999, 49.887389, -59.121609)" y1="0.0716075" x2="0.901585" gradientUnits="userSpaceOnUse" y2="0.892746" id="id3"><stop stop-opacity="1" stop-color="rgb(42.814636%, 8.866882%, 94.564819%)" offset="0"/><stop stop-opacity="1" stop-color="rgb(42.941284%, 8.981323%, 94.549561%)" offset="0.0078125"/><stop stop-opacity="1" stop-color="rgb(43.193054%, 9.210205%, 94.519043%)" offset="0.015625"/><stop stop-opacity="1" stop-color="rgb(43.44635%, 9.440613%, 94.490051%)" offset="0.0234375"/><stop stop-opacity="1" stop-color="rgb(43.69812%, 9.671021%, 94.459534%)" offset="0.03125"/><stop stop-opacity="1" stop-color="rgb(43.94989%, 9.901428%, 94.430542%)" offset="0.0390625"/><stop stop-opacity="1" stop-color="rgb(44.203186%, 10.13031%, 94.400024%)" offset="0.046875"/><stop stop-opacity="1" stop-color="rgb(44.454956%, 10.360718%, 94.369507%)" offset="0.0546875"/><stop stop-opacity="1" stop-color="rgb(44.706726%, 10.591125%, 94.340515%)" offset="0.0625"/><stop stop-opacity="1" stop-color="rgb(44.960022%, 10.821533%, 94.309998%)" offset="0.0703125"/><stop stop-opacity="1" stop-color="rgb(45.211792%, 11.050415%, 94.281006%)" offset="0.078125"/><stop stop-opacity="1" stop-color="rgb(45.463562%, 11.280823%, 94.250488%)" offset="0.0859375"/><stop stop-opacity="1" stop-color="rgb(45.716858%, 11.51123%, 94.219971%)" offset="0.09375"/><stop stop-opacity="1" stop-color="rgb(45.968628%, 11.740112%, 94.190979%)" offset="0.101563"/><stop stop-opacity="1" stop-color="rgb(46.220398%, 11.97052%, 94.160461%)" offset="0.109375"/><stop stop-opacity="1" stop-color="rgb(46.473694%, 12.200928%, 94.129944%)" offset="0.117188"/><stop stop-opacity="1" stop-color="rgb(46.725464%, 12.431335%, 94.100952%)" offset="0.125"/><stop stop-opacity="1" stop-color="rgb(46.977234%, 12.660217%, 94.070435%)" offset="0.132813"/><stop stop-opacity="1" stop-color="rgb(47.23053%, 12.890625%, 94.041443%)" offset="0.140625"/><stop stop-opacity="1" stop-color="rgb(47.4823%, 13.121033%, 94.010925%)" offset="0.148438"/><stop stop-opacity="1" stop-color="rgb(47.73407%, 13.35144%, 93.980408%)" offset="0.15625"/><stop stop-opacity="1" stop-color="rgb(47.987366%, 13.580322%, 93.951416%)" offset="0.164062"/><stop stop-opacity="1" stop-color="rgb(48.239136%, 13.81073%, 93.920898%)" offset="0.171875"/><stop stop-opacity="1" stop-color="rgb(48.490906%, 14.041138%, 93.890381%)" offset="0.179688"/><stop stop-opacity="1" stop-color="rgb(48.744202%, 14.27002%, 93.861389%)" offset="0.1875"/><stop stop-opacity="1" stop-color="rgb(48.995972%, 14.500427%, 93.830872%)" offset="0.195313"/><stop stop-opacity="1" stop-color="rgb(49.247742%, 14.730835%, 93.80188%)" offset="0.203125"/><stop stop-opacity="1" stop-color="rgb(49.501038%, 14.961243%, 93.771362%)" offset="0.210938"/><stop stop-opacity="1" stop-color="rgb(49.752808%, 15.190125%, 93.740845%)" offset="0.21875"/><stop stop-opacity="1" stop-color="rgb(50.004578%, 15.420532%, 93.711853%)" offset="0.226563"/><stop stop-opacity="1" stop-color="rgb(50.257874%, 15.65094%, 93.681335%)" offset="0.234375"/><stop stop-opacity="1" stop-color="rgb(50.509644%, 15.881348%, 93.650818%)" offset="0.242188"/><stop stop-opacity="1" stop-color="rgb(50.761414%, 16.110229%, 93.621826%)" offset="0.25"/><stop stop-opacity="1" stop-color="rgb(51.014709%, 16.340637%, 93.591309%)" offset="0.257813"/><stop stop-opacity="1" stop-color="rgb(51.266479%, 16.571045%, 93.562317%)" offset="0.265625"/><stop stop-opacity="1" stop-color="rgb(51.51825%, 16.799927%, 93.531799%)" offset="0.273438"/><stop stop-opacity="1" stop-color="rgb(51.771545%, 17.030334%, 93.501282%)" offset="0.28125"/><stop stop-opacity="1" stop-color="rgb(52.023315%, 17.260742%, 93.47229%)" offset="0.289063"/><stop stop-opacity="1" stop-color="rgb(52.275085%, 17.49115%, 93.441772%)" offset="0.296875"/><stop stop-opacity="1" stop-color="rgb(52.528381%, 17.720032%, 93.411255%)" offset="0.304688"/><stop stop-opacity="1" stop-color="rgb(52.780151%, 17.950439%, 93.382263%)" offset="0.3125"/><stop stop-opacity="1" stop-color="rgb(53.031921%, 18.180847%, 93.351746%)" offset="0.320313"/><stop stop-opacity="1" stop-color="rgb(53.285217%, 18.411255%, 93.322754%)" offset="0.328125"/><stop stop-opacity="1" stop-color="rgb(53.536987%, 18.640137%, 93.292236%)" offset="0.335938"/><stop stop-opacity="1" stop-color="rgb(53.790283%, 18.870544%, 93.261719%)" offset="0.34375"/><stop stop-opacity="1" stop-color="rgb(54.042053%, 19.100952%, 93.232727%)" offset="0.351563"/><stop stop-opacity="1" stop-color="rgb(54.293823%, 19.329834%, 93.202209%)" offset="0.359375"/><stop stop-opacity="1" stop-color="rgb(54.547119%, 19.560242%, 93.171692%)" offset="0.367188"/><stop stop-opacity="1" stop-color="rgb(54.798889%, 19.790649%, 93.1427%)" offset="0.375"/><stop stop-opacity="1" stop-color="rgb(55.050659%, 20.021057%, 93.112183%)" offset="0.382813"/><stop stop-opacity="1" stop-color="rgb(55.303955%, 20.249939%, 93.083191%)" offset="0.390625"/><stop stop-opacity="1" stop-color="rgb(55.555725%, 20.480347%, 93.052673%)" offset="0.398438"/><stop stop-opacity="1" stop-color="rgb(55.807495%, 20.710754%, 93.022156%)" offset="0.40625"/><stop stop-opacity="1" stop-color="rgb(56.060791%, 20.941162%, 92.993164%)" offset="0.414063"/><stop stop-opacity="1" stop-color="rgb(56.312561%, 21.170044%, 92.962646%)" offset="0.421875"/><stop stop-opacity="1" stop-color="rgb(56.564331%, 21.400452%, 92.932129%)" offset="0.429688"/><stop stop-opacity="1" stop-color="rgb(56.817627%, 21.630859%, 92.903137%)" offset="0.4375"/><stop stop-opacity="1" stop-color="rgb(57.069397%, 21.861267%, 92.87262%)" offset="0.445312"/><stop stop-opacity="1" stop-color="rgb(57.321167%, 22.090149%, 92.843628%)" offset="0.453125"/><stop stop-opacity="1" stop-color="rgb(57.574463%, 22.320557%, 92.81311%)" offset="0.460938"/><stop stop-opacity="1" stop-color="rgb(57.826233%, 22.550964%, 92.782593%)" offset="0.46875"/><stop stop-opacity="1" stop-color="rgb(58.078003%, 22.779846%, 92.753601%)" offset="0.476563"/><stop stop-opacity="1" stop-color="rgb(58.331299%, 23.010254%, 92.723083%)" offset="0.484294"/><stop stop-opacity="1" stop-color="rgb(58.457947%, 23.126221%, 92.707825%)" offset="0.484375"/><stop stop-opacity="1" stop-color="rgb(58.583069%, 23.240662%, 92.692566%)" offset="0.492188"/><stop stop-opacity="1" stop-color="rgb(58.834839%, 23.471069%, 92.663574%)" offset="0.5"/><stop stop-opacity="1" stop-color="rgb(59.088135%, 23.699951%, 92.633057%)" offset="0.507812"/><stop stop-opacity="1" stop-color="rgb(59.339905%, 23.930359%, 92.604065%)" offset="0.515625"/><stop stop-opacity="1" stop-color="rgb(59.591675%, 24.160767%, 92.573547%)" offset="0.515706"/><stop stop-opacity="1" stop-color="rgb(59.718323%, 24.276733%, 92.558289%)" offset="0.523438"/><stop stop-opacity="1" stop-color="rgb(59.844971%, 24.391174%, 92.54303%)" offset="0.53125"/><stop stop-opacity="1" stop-color="rgb(60.096741%, 24.620056%, 92.514038%)" offset="0.539062"/><stop stop-opacity="1" stop-color="rgb(60.348511%, 24.850464%, 92.483521%)" offset="0.546875"/><stop stop-opacity="1" stop-color="rgb(60.601807%, 25.080872%, 92.453003%)" offset="0.554688"/><stop stop-opacity="1" stop-color="rgb(60.853577%, 25.309753%, 92.424011%)" offset="0.5625"/><stop stop-opacity="1" stop-color="rgb(61.105347%, 25.540161%, 92.393494%)" offset="0.570313"/><stop stop-opacity="1" stop-color="rgb(61.358643%, 25.770569%, 92.364502%)" offset="0.578125"/><stop stop-opacity="1" stop-color="rgb(61.610413%, 26.000977%, 92.333984%)" offset="0.585938"/><stop stop-opacity="1" stop-color="rgb(61.862183%, 26.229858%, 92.303467%)" offset="0.59375"/><stop stop-opacity="1" stop-color="rgb(62.115479%, 26.460266%, 92.274475%)" offset="0.601563"/><stop stop-opacity="1" stop-color="rgb(62.367249%, 26.690674%, 92.243958%)" offset="0.609375"/><stop stop-opacity="1" stop-color="rgb(62.619019%, 26.921082%, 92.21344%)" offset="0.617188"/><stop stop-opacity="1" stop-color="rgb(62.872314%, 27.149963%, 92.184448%)" offset="0.625"/><stop stop-opacity="1" stop-color="rgb(63.124084%, 27.380371%, 92.153931%)" offset="0.632812"/><stop stop-opacity="1" stop-color="rgb(63.375854%, 27.610779%, 92.124939%)" offset="0.640625"/><stop stop-opacity="1" stop-color="rgb(63.62915%, 27.839661%, 92.094421%)" offset="0.648438"/><stop stop-opacity="1" stop-color="rgb(63.88092%, 28.070068%, 92.063904%)" offset="0.65625"/><stop stop-opacity="1" stop-color="rgb(64.134216%, 28.300476%, 92.034912%)" offset="0.664062"/><stop stop-opacity="1" stop-color="rgb(64.385986%, 28.530884%, 92.004395%)" offset="0.671875"/><stop stop-opacity="1" stop-color="rgb(64.637756%, 28.759766%, 91.973877%)" offset="0.679688"/><stop stop-opacity="1" stop-color="rgb(64.891052%, 28.990173%, 91.944885%)" offset="0.6875"/><stop stop-opacity="1" stop-color="rgb(65.142822%, 29.220581%, 91.914368%)" offset="0.695312"/><stop stop-opacity="1" stop-color="rgb(65.394592%, 29.450989%, 91.885376%)" offset="0.703125"/><stop stop-opacity="1" stop-color="rgb(65.647888%, 29.679871%, 91.854858%)" offset="0.710937"/><stop stop-opacity="1" stop-color="rgb(65.899658%, 29.910278%, 91.824341%)" offset="0.71875"/><stop stop-opacity="1" stop-color="rgb(66.151428%, 30.140686%, 91.795349%)" offset="0.726562"/><stop stop-opacity="1" stop-color="rgb(66.404724%, 30.369568%, 91.764832%)" offset="0.734375"/><stop stop-opacity="1" stop-color="rgb(66.656494%, 30.599976%, 91.734314%)" offset="0.742187"/><stop stop-opacity="1" stop-color="rgb(66.908264%, 30.830383%, 91.705322%)" offset="0.75"/><stop stop-opacity="1" stop-color="rgb(67.16156%, 31.060791%, 91.674805%)" offset="0.757813"/><stop stop-opacity="1" stop-color="rgb(67.41333%, 31.289673%, 91.645813%)" offset="0.765625"/><stop stop-opacity="1" stop-color="rgb(67.6651%, 31.520081%, 91.615295%)" offset="0.773438"/><stop stop-opacity="1" stop-color="rgb(67.918396%, 31.750488%, 91.584778%)" offset="0.78125"/><stop stop-opacity="1" stop-color="rgb(68.170166%, 31.980896%, 91.555786%)" offset="0.789063"/><stop stop-opacity="1" stop-color="rgb(68.421936%, 32.209778%, 91.525269%)" offset="0.796875"/><stop stop-opacity="1" stop-color="rgb(68.675232%, 32.440186%, 91.494751%)" offset="0.804688"/><stop stop-opacity="1" stop-color="rgb(68.927002%, 32.670593%, 91.465759%)" offset="0.8125"/><stop stop-opacity="1" stop-color="rgb(69.178772%, 32.899475%, 91.435242%)" offset="0.820312"/><stop stop-opacity="1" stop-color="rgb(69.432068%, 33.129883%, 91.40625%)" offset="0.828125"/><stop stop-opacity="1" stop-color="rgb(69.683838%, 33.360291%, 91.375732%)" offset="0.835938"/><stop stop-opacity="1" stop-color="rgb(69.935608%, 33.590698%, 91.345215%)" offset="0.84375"/><stop stop-opacity="1" stop-color="rgb(70.188904%, 33.81958%, 91.316223%)" offset="0.851562"/><stop stop-opacity="1" stop-color="rgb(70.440674%, 34.049988%, 91.285706%)" offset="0.859375"/><stop stop-opacity="1" stop-color="rgb(70.692444%, 34.280396%, 91.255188%)" offset="0.867188"/><stop stop-opacity="1" stop-color="rgb(70.94574%, 34.510803%, 91.226196%)" offset="0.875"/><stop stop-opacity="1" stop-color="rgb(71.19751%, 34.739685%, 91.195679%)" offset="0.882812"/><stop stop-opacity="1" stop-color="rgb(71.44928%, 34.970093%, 91.166687%)" offset="0.890625"/><stop stop-opacity="1" stop-color="rgb(71.702576%, 35.2005%, 91.136169%)" offset="0.898437"/><stop stop-opacity="1" stop-color="rgb(71.954346%, 35.429382%, 91.105652%)" offset="0.90625"/><stop stop-opacity="1" stop-color="rgb(72.206116%, 35.65979%, 91.07666%)" offset="0.914062"/><stop stop-opacity="1" stop-color="rgb(72.459412%, 35.890198%, 91.046143%)" offset="0.921875"/><stop stop-opacity="1" stop-color="rgb(72.711182%, 36.120605%, 91.015625%)" offset="0.929687"/><stop stop-opacity="1" stop-color="rgb(72.962952%, 36.349487%, 90.986633%)" offset="0.9375"/><stop stop-opacity="1" stop-color="rgb(73.216248%, 36.579895%, 90.956116%)" offset="0.945313"/><stop stop-opacity="1" stop-color="rgb(73.468018%, 36.810303%, 90.927124%)" offset="0.953125"/><stop stop-opacity="1" stop-color="rgb(73.721313%, 37.04071%, 90.896606%)" offset="0.960938"/><stop stop-opacity="1" stop-color="rgb(73.973083%, 37.269592%, 90.866089%)" offset="0.96875"/><stop stop-opacity="1" stop-color="rgb(74.224854%, 37.5%, 90.837097%)" offset="0.976562"/><stop stop-opacity="1" stop-color="rgb(74.478149%, 37.730408%, 90.80658%)" offset="0.984375"/><stop stop-opacity="1" stop-color="rgb(74.729919%, 37.95929%, 90.777588%)" offset="0.992188"/><stop stop-opacity="1" stop-color="rgb(74.981689%, 38.189697%, 90.74707%)" offset="1"/></linearGradient></defs><rect x="-37.5" width="450" fill="#ffffff" y="-37.499999" height="449.999989" fill-opacity="1"/><rect x="-37.5" width="450" fill="#ffffff" y="-37.499999" height="449.999989" fill-opacity="1"/><rect x="-37.5" width="450" fill="#ffffff" y="-37.499999" height="449.999989" fill-opacity="1"/><rect x="-37.5" width="450" fill="#ffffff" y="-37.499999" height="449.999989" fill-opacity="1"/><g clip-path="url(#id1)"><g clip-path="url(#id2)"><path fill="url(#id3)" d="M 49.886719 0 L 49.886719 349.628906 L 375 349.628906 L 375 0 Z M 49.886719 0 " fill-rule="nonzero"/></g></g></svg>