<svg xmlns="http://www.w3.org/2000/svg" xmlns:xlink="http://www.w3.org/1999/xlink" width="500" zoomAndPan="magnify" viewBox="0 0 375 374.999991" height="500" preserveAspectRatio="xMidYMid meet" version="1.0"><defs><clipPath id="id1"><path d="M 60.480469 84 L 241 84 L 241 265 L 60.480469 265 Z M 60.480469 84 " clip-rule="nonzero"/></clipPath><clipPath id="id2"><path d="M 218 201 L 309 201 L 309 291.324219 L 218 291.324219 Z M 218 201 " clip-rule="nonzero"/></clipPath><clipPath id="id3"><path d="M 246 133 L 314.730469 133 L 314.730469 202 L 246 202 Z M 246 133 " clip-rule="nonzero"/></clipPath></defs><g clip-path="url(#id1)"><path fill="#ffffff" d="M 144.773438 220.210938 C 119.28125 216.855469 101.34375 193.511719 104.703125 168.050781 C 108.0625 142.605469 131.449219 124.691406 156.929688 128.046875 C 182.410156 131.402344 200.359375 154.757812 197 180.207031 C 193.640625 205.652344 170.253906 223.5625 144.773438 220.210938 Z M 240.203125 185.996094 L 240.964844 171.953125 C 241.210938 167.460938 237.75 163.613281 233.25 163.367188 L 224.585938 162.910156 C 223.476562 155.609375 221.292969 148.609375 218.179688 142.101562 L 225.109375 136.835938 C 228.703125 134.105469 229.398438 128.996094 226.667969 125.410156 L 218.160156 114.21875 C 215.425781 110.628906 210.300781 109.933594 206.707031 112.664062 L 199.773438 117.917969 C 192.765625 111.824219 184.5625 106.984375 175.480469 103.820312 L 176.613281 95.222656 C 177.207031 90.761719 174.058594 86.65625 169.582031 86.074219 L 155.632812 84.242188 C 151.164062 83.648438 147.054688 86.789062 146.460938 91.25 L 145.332031 99.851562 C 134.292969 100.65625 123.8125 103.898438 114.488281 109.105469 L 108.800781 102.566406 C 105.84375 99.15625 100.683594 98.789062 97.28125 101.75 L 86.65625 110.964844 C 83.242188 113.902344 82.882812 119.058594 85.839844 122.46875 L 91.515625 128.996094 C 85.703125 136.601562 81.304688 145.398438 78.75 155.058594 L 70.085938 154.589844 C 65.574219 154.355469 61.734375 157.800781 61.492188 162.304688 L 60.734375 176.335938 C 60.488281 180.832031 63.941406 184.675781 68.453125 184.921875 L 77.117188 185.382812 C 78.238281 192.671875 80.421875 199.671875 83.53125 206.167969 L 76.636719 211.410156 C 73.03125 214.136719 72.335938 219.257812 75.070312 222.835938 L 83.589844 234.027344 C 86.308594 237.617188 91.4375 238.3125 95.03125 235.582031 L 101.9375 230.339844 C 108.957031 236.453125 117.164062 241.285156 126.253906 244.449219 L 125.125 253.035156 C 124.53125 257.507812 127.675781 261.601562 132.15625 262.191406 L 146.105469 264.027344 C 150.570312 264.621094 154.679688 261.464844 155.261719 257.003906 L 156.402344 248.40625 C 167.429688 247.589844 177.910156 244.347656 187.238281 239.136719 L 192.933594 245.703125 C 195.890625 249.101562 201.050781 249.46875 204.464844 246.519531 L 215.089844 237.304688 C 218.496094 234.351562 218.851562 229.199219 215.898438 225.789062 L 210.199219 219.238281 C 215.996094 211.644531 220.386719 202.867188 222.9375 193.230469 L 231.617188 193.699219 C 236.117188 193.933594 239.96875 190.492188 240.203125 185.996094 " fill-opacity="1" fill-rule="nonzero"/></g><g clip-path="url(#id2)"><path fill="#ffffff" d="M 263.714844 269.617188 C 250.828125 269.617188 240.394531 259.195312 240.394531 246.339844 C 240.394531 233.480469 250.828125 223.050781 263.714844 223.050781 C 276.585938 223.050781 287.03125 233.480469 287.03125 246.339844 C 287.03125 259.195312 276.585938 269.617188 263.714844 269.617188 Z M 308.863281 246.382812 L 308.328125 239.363281 C 308.148438 237.113281 306.175781 235.4375 303.925781 235.605469 L 299.59375 235.941406 C 298.566406 232.386719 297.019531 229.054688 295.050781 226.035156 L 298.148438 222.960938 C 299.75 221.371094 299.761719 218.777344 298.171875 217.179688 L 293.214844 212.183594 C 291.625 210.582031 289.027344 210.5625 287.425781 212.160156 L 284.324219 215.222656 C 280.4375 212.652344 276.050781 210.785156 271.335938 209.8125 L 271.335938 205.460938 C 271.335938 203.203125 269.5 201.371094 267.238281 201.371094 L 260.199219 201.371094 C 257.9375 201.371094 256.101562 203.203125 256.101562 205.460938 L 256.101562 209.800781 C 250.671875 210.917969 245.675781 213.222656 241.390625 216.417969 L 238.132812 213.535156 C 236.441406 212.035156 233.855469 212.191406 232.355469 213.882812 L 227.6875 219.160156 C 226.183594 220.847656 226.34375 223.429688 228.03125 224.929688 L 231.28125 227.800781 C 228.894531 231.949219 227.28125 236.613281 226.65625 241.574219 L 222.3125 241.910156 C 220.0625 242.078125 218.382812 244.046875 218.550781 246.292969 L 219.097656 253.328125 C 219.265625 255.574219 221.238281 257.25 223.488281 257.082031 L 227.832031 256.738281 C 228.859375 260.292969 230.40625 263.625 232.375 266.652344 L 229.285156 269.695312 C 227.6875 271.292969 227.675781 273.875 229.265625 275.488281 L 234.222656 280.484375 C 235.8125 282.082031 238.410156 282.09375 240.011719 280.507812 L 243.101562 277.453125 C 246.988281 280.027344 251.386719 281.894531 256.101562 282.867188 L 256.101562 287.203125 C 256.101562 289.460938 257.9375 291.296875 260.199219 291.296875 L 267.238281 291.296875 C 269.5 291.296875 271.335938 289.460938 271.335938 287.203125 L 271.335938 282.867188 C 276.753906 281.738281 281.75 279.445312 286.035156 276.246094 L 289.304688 279.132812 C 290.996094 280.628906 293.582031 280.472656 295.082031 278.785156 L 299.75 273.507812 C 301.25 271.820312 301.09375 269.238281 299.402344 267.738281 L 296.144531 264.863281 C 298.519531 260.71875 300.132812 256.066406 300.757812 251.113281 L 305.101562 250.777344 C 307.351562 250.597656 309.042969 248.628906 308.863281 246.382812 " fill-opacity="1" fill-rule="nonzero"/></g><g clip-path="url(#id3)"><path fill="#ffffff" d="M 280.304688 183.066406 C 271.550781 183.066406 264.453125 175.980469 264.453125 167.234375 C 264.453125 158.492188 271.550781 151.402344 280.304688 151.402344 C 289.058594 151.402344 296.167969 158.492188 296.167969 167.234375 C 296.167969 175.980469 289.058594 183.066406 280.304688 183.066406 Z M 314.597656 167.269531 L 314.183594 161.945312 C 314.046875 160.238281 312.558594 158.960938 310.847656 159.085938 L 307.554688 159.34375 C 306.769531 156.648438 305.605469 154.121094 304.105469 151.816406 L 306.457031 149.480469 C 307.675781 148.285156 307.675781 146.316406 306.480469 145.097656 L 302.707031 141.296875 C 301.496094 140.078125 299.527344 140.078125 298.308594 141.285156 L 295.96875 143.609375 C 293.011719 141.65625 289.675781 140.246094 286.09375 139.496094 L 286.09375 136.199219 C 286.09375 134.488281 284.703125 133.089844 282.992188 133.089844 L 277.640625 133.089844 C 275.917969 133.089844 274.527344 134.488281 274.527344 136.199219 L 274.527344 139.496094 C 270.40625 140.347656 266.613281 142.089844 263.355469 144.515625 L 260.890625 142.335938 C 259.605469 141.195312 257.644531 141.320312 256.503906 142.59375 L 252.953125 146.597656 C 251.8125 147.882812 251.933594 149.839844 253.210938 150.980469 L 255.6875 153.160156 C 253.871094 156.324219 252.652344 159.855469 252.171875 163.625 L 248.878906 163.882812 C 247.164062 164.015625 245.890625 165.503906 246.011719 167.214844 L 246.425781 172.546875 C 246.5625 174.246094 248.0625 175.53125 249.761719 175.398438 L 253.066406 175.140625 C 253.839844 177.835938 255.015625 180.363281 256.515625 182.664062 L 254.175781 184.980469 C 252.953125 186.1875 252.941406 188.15625 254.152344 189.363281 L 257.925781 193.164062 C 259.121094 194.382812 261.09375 194.394531 262.3125 193.1875 L 264.652344 190.859375 C 267.609375 192.816406 270.945312 194.238281 274.527344 194.976562 L 274.527344 198.273438 C 274.527344 199.984375 275.917969 201.371094 277.640625 201.371094 L 282.992188 201.371094 C 284.703125 201.371094 286.09375 199.984375 286.09375 198.273438 L 286.09375 194.976562 C 290.210938 194.113281 294.007812 192.371094 297.265625 189.953125 L 299.738281 192.136719 C 301.027344 193.277344 302.988281 193.152344 304.128906 191.878906 L 307.675781 187.875 C 308.808594 186.589844 308.695312 184.621094 307.410156 183.492188 L 304.933594 181.300781 C 306.738281 178.148438 307.957031 174.625 308.4375 170.871094 L 311.742188 170.613281 C 313.445312 170.476562 314.730469 168.992188 314.597656 167.269531 " fill-opacity="1" fill-rule="nonzero"/></g></svg>