<svg xmlns="http://www.w3.org/2000/svg" xmlns:xlink="http://www.w3.org/1999/xlink" width="500" zoomAndPan="magnify" viewBox="0 0 375 374.999991" height="500" preserveAspectRatio="xMidYMid meet" version="1.0"><defs><clipPath id="id1"><path d="M 0 0.785156 L 374.25 0.785156 L 374.25 375 L 0 375 Z M 0 0.785156 " clip-rule="nonzero"/></clipPath></defs><g clip-path="url(#id1)"><path fill="#7c828d" d="M 187.042969 34.527344 C 236.980469 34.527344 242.886719 34.691406 262.648438 35.59375 C 280.851562 36.414062 290.773438 39.449219 297.414062 42.074219 C 306.109375 45.433594 312.339844 49.535156 318.898438 56.09375 C 325.460938 62.65625 329.476562 68.886719 332.921875 77.578125 C 335.464844 84.136719 338.496094 94.0625 339.398438 112.347656 C 340.300781 132.109375 340.464844 138.011719 340.464844 187.949219 C 340.464844 237.890625 340.300781 243.792969 339.398438 263.554688 C 338.578125 281.757812 335.546875 291.679688 332.921875 298.324219 C 329.558594 307.015625 325.460938 313.246094 318.898438 319.808594 C 312.339844 326.367188 306.109375 330.386719 297.414062 333.828125 C 290.855469 336.371094 280.933594 339.40625 262.648438 340.308594 C 242.886719 341.210938 236.980469 341.375 187.042969 341.375 C 137.105469 341.375 131.199219 341.210938 111.4375 340.308594 C 93.234375 339.488281 83.3125 336.453125 76.671875 333.828125 C 67.976562 330.46875 61.746094 326.367188 55.1875 319.808594 C 48.625 313.246094 44.609375 307.015625 41.164062 298.324219 C 38.621094 291.761719 35.589844 281.839844 34.6875 263.554688 C 33.785156 243.792969 33.621094 237.890625 33.621094 187.949219 C 33.621094 138.011719 33.785156 132.109375 34.6875 112.347656 C 35.507812 94.144531 38.539062 84.21875 41.164062 77.578125 C 44.527344 68.886719 48.625 62.65625 55.1875 56.09375 C 61.746094 49.535156 67.976562 45.515625 76.671875 42.074219 C 83.230469 39.53125 93.152344 36.496094 111.4375 35.59375 C 131.199219 34.691406 137.105469 34.527344 187.042969 34.527344 M 187.042969 0.824219 C 136.203125 0.824219 129.890625 1.070312 109.878906 1.972656 C 89.953125 2.875 76.34375 6.074219 64.453125 10.667969 C 52.152344 15.421875 41.738281 21.816406 31.324219 32.230469 C 20.992188 42.644531 14.597656 53.058594 9.839844 65.359375 C 5.246094 77.25 2.050781 90.863281 1.148438 110.789062 C 0.246094 130.714844 0 137.109375 0 187.867188 C 0 238.710938 0.246094 245.023438 1.148438 265.03125 C 2.050781 284.957031 5.246094 298.570312 9.839844 310.460938 C 14.597656 322.761719 20.992188 333.175781 31.40625 343.589844 C 41.820312 354.003906 52.234375 360.398438 64.535156 365.152344 C 76.425781 369.746094 90.035156 372.945312 109.960938 373.847656 C 129.890625 374.75 136.285156 374.992188 187.125 374.992188 C 237.964844 374.992188 244.28125 374.75 264.289062 373.847656 C 284.214844 372.945312 297.824219 369.746094 309.714844 365.152344 C 322.015625 360.398438 332.429688 354.003906 342.84375 343.589844 C 353.257812 333.175781 359.652344 322.761719 364.410156 310.460938 C 369.003906 298.570312 372.199219 284.957031 373.101562 265.03125 C 374.003906 245.105469 374.25 238.710938 374.25 187.867188 C 374.25 137.027344 374.003906 130.714844 373.101562 110.707031 C 372.199219 90.78125 369.003906 77.167969 364.410156 65.277344 C 359.652344 52.976562 353.257812 42.5625 342.84375 32.148438 C 332.429688 21.734375 322.015625 15.339844 309.714844 10.585938 C 297.824219 5.992188 284.214844 2.792969 264.289062 1.890625 C 244.28125 1.070312 237.882812 0.824219 187.042969 0.824219 " fill-opacity="1" fill-rule="nonzero"/></g><path fill="#7c828d" d="M 187.042969 91.847656 C 133.988281 91.847656 91.019531 134.816406 91.019531 187.867188 C 91.019531 240.921875 134.070312 283.972656 187.125 283.972656 C 240.179688 283.972656 283.230469 241.003906 283.230469 187.867188 C 283.148438 134.816406 240.097656 91.847656 187.042969 91.847656 M 187.042969 250.269531 C 152.601562 250.269531 124.722656 222.390625 124.722656 187.949219 C 124.722656 153.511719 152.601562 125.628906 187.042969 125.628906 C 221.484375 125.628906 249.363281 153.511719 249.363281 187.949219 C 249.445312 222.308594 221.484375 250.269531 187.042969 250.269531 " fill-opacity="1" fill-rule="nonzero"/><path fill="#7c828d" d="M 309.386719 88.074219 C 309.386719 100.457031 299.300781 110.542969 286.917969 110.542969 C 274.539062 110.542969 264.453125 100.457031 264.453125 88.074219 C 264.453125 75.691406 274.539062 65.605469 286.917969 65.605469 C 299.300781 65.605469 309.386719 75.609375 309.386719 88.074219 " fill-opacity="1" fill-rule="nonzero"/></svg>