<svg xmlns="http://www.w3.org/2000/svg" xmlns:xlink="http://www.w3.org/1999/xlink" width="500" zoomAndPan="magnify" viewBox="0 0 375 374.999991" height="500" preserveAspectRatio="xMidYMid meet" version="1.0"><path fill="#8c52ff" d="M 92.175781 49.566406 C 143.78125 49.566406 181.078125 92.179688 181.035156 155.234375 C 180.738281 246.851562 111.792969 311.675781 12.324219 324.125 C 3.105469 325.261719 -0.429688 312.472656 8.03125 308.730469 C 46.210938 291.734375 65.488281 270.242188 67.972656 248.957031 C 69.824219 233.011719 61.195312 219.089844 50.292969 216.480469 C 22.132812 209.710938 3.273438 174.667969 3.273438 138.410156 C 3.273438 89.363281 43.054688 49.566406 92.175781 49.566406 Z M 92.175781 49.566406 " fill-opacity="1" fill-rule="nonzero"/><path fill="#8c52ff" d="M 286.140625 49.566406 C 337.746094 49.566406 375.042969 92.179688 375 155.234375 C 374.707031 246.851562 305.757812 311.675781 206.289062 324.125 C 197.070312 325.261719 193.535156 312.472656 201.996094 308.730469 C 240.175781 291.734375 259.453125 270.242188 261.9375 248.957031 C 263.789062 233.011719 255.160156 219.089844 244.257812 216.480469 C 216.097656 209.710938 197.242188 174.667969 197.242188 138.410156 C 197.242188 89.363281 237.019531 49.566406 286.140625 49.566406 Z M 286.140625 49.566406 " fill-opacity="1" fill-rule="nonzero"/></svg>