<svg xmlns="http://www.w3.org/2000/svg" xmlns:xlink="http://www.w3.org/1999/xlink" width="500" zoomAndPan="magnify" viewBox="0 0 375 374.999991" height="500" preserveAspectRatio="xMidYMid meet" version="1.0"><defs><clipPath id="id1"><path d="M 264 1 L 355.507812 1 L 355.507812 119 L 264 119 Z M 264 1 " clip-rule="nonzero"/></clipPath></defs><path fill="#2a2e34" d="M 314.886719 282.824219 C 314.089844 284.417969 312.128906 287.972656 306.984375 287.972656 L 69.320312 287.972656 C 64.207031 287.972656 62.21875 284.417969 61.453125 282.824219 C 60.65625 281.261719 59.460938 277.34375 62.613281 273.390625 L 79.941406 252.097656 C 94.90625 233.597656 103.140625 210.378906 103.140625 186.363281 L 103.140625 146.96875 C 103.539062 100.101562 141.339844 61.902344 188.167969 61.902344 C 235 61.902344 272.769531 100.101562 272.769531 146.570312 L 272.769531 186.363281 C 272.769531 210.378906 281.03125 233.597656 295.96875 252.097656 L 313.292969 273.390625 C 316.84375 277.34375 315.648438 281.261719 314.886719 282.824219 Z M 188.167969 346.632812 C 170.046875 346.632812 155.113281 333.246094 152.359375 315.90625 L 223.980469 315.90625 C 221.226562 333.246094 206.257812 346.632812 188.167969 346.632812 Z M 318.003906 234.394531 C 306.984375 221.007812 301.113281 204.066406 301.113281 186.730469 L 301.113281 146.96875 C 301.113281 89.472656 257.800781 41.804688 202.339844 34.730469 L 202.339844 15.035156 C 202.339844 7.160156 196.035156 0.851562 188.167969 0.851562 C 180.304688 0.851562 173.996094 7.160156 173.996094 15.035156 L 173.996094 34.730469 C 118.503906 41.804688 75.226562 89.472656 75.226562 146.96875 L 75.226562 186.730469 C 75.226562 204.066406 69.320312 221.007812 58.300781 234.394531 L 40.976562 255.6875 C 31.914062 266.714844 29.957031 282.058594 36.261719 295.046875 C 42.570312 308.035156 55.148438 316.339844 69.71875 316.339844 L 124.015625 316.339844 C 127.167969 349.390625 154.714844 375 188.535156 375 C 222.386719 375 249.933594 349.023438 253.085938 316.339844 L 307.382812 316.339844 C 321.953125 316.339844 334.53125 308.035156 340.839844 295.046875 C 347.144531 282.058594 345.1875 267.078125 336.125 255.6875 L 318.003906 234.394531 " fill-opacity="1" fill-rule="nonzero"/><path fill="#2a2e34" d="M 48.445312 107.972656 C 57.503906 75.289062 77.980469 46.921875 105.925781 27.222656 C 112.199219 22.90625 113.792969 13.839844 109.445312 7.527344 C 105.128906 1.25 96.070312 -0.34375 89.765625 4.007812 C 56.707031 27.222656 32.3125 61.503906 21.292969 100.5 C 19.335938 107.972656 23.652344 115.84375 31.152344 117.839844 C 32.3125 118.203125 33.507812 118.203125 35.066406 118.203125 C 40.976562 118.601562 46.882812 114.285156 48.445312 107.972656 " fill-opacity="1" fill-rule="nonzero"/><g clip-path="url(#id1)"><path fill="#2a2e34" d="M 355.011719 100.5 C 343.992188 61.503906 319.597656 27.222656 286.542969 4.007812 C 280.234375 -0.34375 271.175781 1.25 266.859375 7.527344 C 262.546875 13.839844 264.105469 22.90625 270.410156 27.222656 C 298.355469 46.523438 318.800781 75.289062 327.863281 107.972656 C 329.421875 114.285156 335.328125 118.203125 341.636719 118.203125 C 342.796875 118.203125 343.992188 118.203125 345.550781 117.839844 C 352.652344 115.84375 356.96875 107.972656 355.011719 100.5 " fill-opacity="1" fill-rule="nonzero"/></g></svg>