<svg xmlns="http://www.w3.org/2000/svg" xmlns:xlink="http://www.w3.org/1999/xlink" width="500" zoomAndPan="magnify" viewBox="0 0 375 374.999991" height="500" preserveAspectRatio="xMidYMid meet" version="1.0"><path fill="#8c52ff" d="M 39.988281 1.777344 C 18.050781 1.777344 0 19.828125 0 41.765625 L 0 335.011719 C 0 356.949219 18.050781 375 39.988281 375 L 333.234375 375 C 355.171875 375 373.222656 356.949219 373.222656 335.011719 L 373.222656 188.042969 C 373.222656 180.683594 367.253906 174.710938 359.894531 174.710938 C 352.535156 174.710938 346.5625 180.683594 346.5625 188.042969 L 346.5625 335.011719 C 346.5625 342.648438 340.871094 348.339844 333.234375 348.339844 L 39.988281 348.339844 C 32.351562 348.339844 26.660156 342.648438 26.660156 335.011719 L 26.660156 41.765625 C 26.660156 34.128906 32.351562 28.4375 39.988281 28.4375 L 186.613281 28.4375 C 193.96875 28.4375 199.941406 22.464844 199.941406 15.105469 C 199.941406 7.746094 193.96875 1.777344 186.613281 1.777344 Z M 39.988281 1.777344 " fill-opacity="1" fill-rule="nonzero"/><path fill="#8c52ff" d="M 113.507812 179.292969 C 111.425781 181.375 110.105469 184.015625 109.691406 186.929688 L 99.34375 261.074219 C 98.164062 269.890625 105.734375 277.390625 114.480469 276.070312 L 188.207031 265.308594 C 191.054688 264.894531 193.691406 263.574219 195.707031 261.492188 L 365.167969 92.027344 C 375.792969 81.40625 375.792969 63.703125 365.167969 53.082031 L 321.917969 9.898438 C 311.296875 -0.792969 293.59375 -0.792969 282.902344 9.832031 Z M 135.445312 194.984375 C 190.707031 139.722656 248.191406 82.308594 302.410156 28.089844 L 346.910156 72.449219 C 292.136719 127.503906 235.417969 184.085938 179.945312 239.554688 L 128.226562 247.191406 Z M 135.445312 194.984375 " fill-opacity="1" fill-rule="nonzero"/></svg>