<svg xmlns="http://www.w3.org/2000/svg" xmlns:xlink="http://www.w3.org/1999/xlink" width="500" zoomAndPan="magnify" viewBox="0 0 375 374.999991" height="500" preserveAspectRatio="xMidYMid meet" version="1.0"><defs><clipPath id="id1"><path d="M 8.90625 4 L 365.90625 4 L 365.90625 375 L 8.90625 375 Z M 8.90625 4 " clip-rule="nonzero"/></clipPath></defs><g clip-path="url(#id1)"><path fill="#8c52ff" d="M 310.972656 374.9375 L 256.039062 374.9375 C 233.328125 374.9375 214.859375 356.460938 214.859375 333.738281 L 214.859375 306.257812 C 214.859375 298.683594 208.695312 292.542969 201.152344 292.542969 L 173.660156 292.542969 C 166.089844 292.542969 159.953125 298.710938 159.953125 306.257812 L 159.953125 333.738281 C 159.953125 356.460938 141.484375 374.9375 118.773438 374.9375 L 63.816406 374.9375 C 33.539062 374.9375 8.90625 350.292969 8.90625 320 L 8.90625 173.265625 C 8.90625 157.898438 15.390625 143.144531 26.707031 132.785156 L 150.285156 19.453125 C 171.441406 0.0625 203.371094 0.0625 224.527344 19.453125 L 348.105469 132.785156 C 359.421875 143.167969 365.90625 157.921875 365.90625 173.265625 L 365.90625 319.972656 C 365.882812 350.292969 341.25 374.9375 310.972656 374.9375 Z M 173.660156 265.058594 L 201.152344 265.058594 C 223.859375 265.058594 242.328125 283.539062 242.328125 306.257812 L 242.328125 333.738281 C 242.328125 341.3125 248.492188 347.457031 256.039062 347.457031 L 310.972656 347.457031 C 326.109375 347.457031 338.4375 335.144531 338.4375 319.972656 L 338.4375 173.265625 C 338.4375 165.59375 335.183594 158.21875 329.539062 153.035156 L 205.960938 39.707031 C 195.382812 29.984375 179.40625 29.984375 168.828125 39.707031 L 45.273438 153.035156 C 39.628906 158.21875 36.375 165.59375 36.375 173.265625 L 36.375 319.972656 C 36.375 335.121094 48.675781 347.457031 63.839844 347.457031 L 118.773438 347.457031 C 126.34375 347.457031 132.484375 341.289062 132.484375 333.738281 L 132.484375 306.257812 C 132.484375 283.539062 150.953125 265.058594 173.660156 265.058594 Z M 173.660156 265.058594 " fill-opacity="1" fill-rule="nonzero"/></g></svg>