<svg xmlns="http://www.w3.org/2000/svg" xmlns:xlink="http://www.w3.org/1999/xlink" width="500" zoomAndPan="magnify" viewBox="0 0 375 374.999991" height="500" preserveAspectRatio="xMidYMid meet" version="1.0"><defs><clipPath id="id1"><path d="M 0 24.609375 L 375 24.609375 L 375 350 L 0 350 Z M 0 24.609375 " clip-rule="nonzero"/></clipPath></defs><g clip-path="url(#id1)"><path fill="#8c52ff" d="M 187.5 24.664062 C 84.113281 24.664062 0 108.707031 0 212.003906 C 0 266.617188 23.65625 315.691406 61.097656 349.964844 L 60.648438 315.136719 C 60.398438 295.777344 74.023438 279.058594 93.050781 275.375 L 154.34375 263.542969 C 156.308594 263.167969 158.296875 264.152344 159.1875 265.941406 L 187.503906 322.847656 L 215.820312 265.941406 C 216.714844 264.152344 218.671875 263.167969 220.664062 263.542969 L 281.949219 275.375 C 300.980469 279.058594 314.605469 295.777344 314.355469 315.136719 L 313.90625 349.96875 C 351.351562 315.695312 375.007812 266.617188 375.007812 212.003906 C 375.007812 108.714844 290.902344 24.667969 187.507812 24.667969 Z M 233.324219 225.53125 C 220.480469 237.730469 203.988281 243.828125 187.5 243.828125 C 171.011719 243.828125 154.519531 237.730469 141.671875 225.535156 C 113.851562 199.136719 106.652344 158.347656 123.753906 124.03125 C 130.617188 110.265625 141.980469 98.90625 155.757812 92.058594 C 190.910156 74.566406 233.746094 88.914062 251.25 124.03125 C 268.347656 158.339844 261.160156 199.132812 233.328125 225.53125 Z M 233.324219 225.53125 " fill-opacity="1" fill-rule="nonzero"/></g></svg>