<svg xmlns="http://www.w3.org/2000/svg" xmlns:xlink="http://www.w3.org/1999/xlink" width="500" zoomAndPan="magnify" viewBox="0 0 375 374.999991" height="500" preserveAspectRatio="xMidYMid meet" version="1.0"><defs><clipPath id="id1"><path d="M 100.644531 100 L 274.644531 100 L 274.644531 257 L 100.644531 257 Z M 100.644531 100 " clip-rule="nonzero"/></clipPath><clipPath id="id2"><path d="M 170 83.195312 L 206 83.195312 L 206 118 L 170 118 Z M 170 83.195312 " clip-rule="nonzero"/></clipPath><clipPath id="id3"><path d="M 164 268 L 211 268 L 211 291.695312 L 164 291.695312 Z M 164 268 " clip-rule="nonzero"/></clipPath></defs><g clip-path="url(#id1)"><path fill="#ffffff" d="M 245.644531 158.507812 C 245.644531 222.167969 274.644531 216.382812 274.644531 245.320312 C 274.644531 245.320312 274.644531 256.894531 263.042969 256.894531 L 112.242188 256.894531 C 100.644531 256.894531 100.644531 245.320312 100.644531 245.320312 C 100.644531 216.382812 129.644531 222.167969 129.644531 158.507812 C 129.644531 126.550781 155.609375 100.636719 187.644531 100.636719 C 219.675781 100.636719 245.644531 126.550781 245.644531 158.507812 Z M 245.644531 158.507812 " fill-opacity="1" fill-rule="nonzero"/></g><g clip-path="url(#id2)"><path fill="#ffffff" d="M 205.042969 100.636719 C 205.042969 101.203125 205.015625 101.773438 204.960938 102.335938 C 204.902344 102.902344 204.820312 103.464844 204.707031 104.023438 C 204.597656 104.582031 204.457031 105.132812 204.292969 105.675781 C 204.128906 106.21875 203.9375 106.753906 203.71875 107.28125 C 203.5 107.804688 203.257812 108.320312 202.988281 108.820312 C 202.71875 109.320312 202.425781 109.808594 202.109375 110.28125 C 201.792969 110.753906 201.453125 111.210938 201.09375 111.648438 C 200.730469 112.089844 200.347656 112.511719 199.945312 112.914062 C 199.542969 113.316406 199.121094 113.695312 198.679688 114.058594 C 198.242188 114.417969 197.785156 114.753906 197.308594 115.070312 C 196.835938 115.386719 196.347656 115.679688 195.84375 115.949219 C 195.34375 116.214844 194.828125 116.457031 194.300781 116.675781 C 193.773438 116.894531 193.238281 117.085938 192.695312 117.25 C 192.148438 117.414062 191.597656 117.554688 191.039062 117.664062 C 190.476562 117.773438 189.914062 117.859375 189.347656 117.914062 C 188.78125 117.96875 188.210938 117.996094 187.644531 117.996094 C 187.074219 117.996094 186.503906 117.96875 185.9375 117.914062 C 185.371094 117.859375 184.808594 117.773438 184.25 117.664062 C 183.6875 117.554688 183.136719 117.414062 182.59375 117.25 C 182.046875 117.085938 181.511719 116.894531 180.984375 116.675781 C 180.457031 116.457031 179.941406 116.214844 179.441406 115.949219 C 178.9375 115.679688 178.449219 115.386719 177.976562 115.070312 C 177.503906 114.753906 177.042969 114.417969 176.605469 114.058594 C 176.164062 113.695312 175.742188 113.316406 175.339844 112.914062 C 174.9375 112.511719 174.554688 112.089844 174.191406 111.648438 C 173.832031 111.210938 173.492188 110.753906 173.175781 110.28125 C 172.859375 109.808594 172.566406 109.320312 172.296875 108.820312 C 172.027344 108.320312 171.785156 107.804688 171.566406 107.28125 C 171.347656 106.753906 171.15625 106.21875 170.992188 105.675781 C 170.828125 105.132812 170.6875 104.582031 170.578125 104.023438 C 170.464844 103.464844 170.382812 102.902344 170.328125 102.335938 C 170.269531 101.773438 170.242188 101.203125 170.242188 100.636719 C 170.242188 100.066406 170.269531 99.5 170.328125 98.933594 C 170.382812 98.367188 170.464844 97.804688 170.578125 97.25 C 170.6875 96.691406 170.828125 96.140625 170.992188 95.597656 C 171.15625 95.050781 171.347656 94.515625 171.566406 93.992188 C 171.785156 93.464844 172.027344 92.953125 172.296875 92.453125 C 172.566406 91.949219 172.859375 91.464844 173.175781 90.988281 C 173.492188 90.515625 173.832031 90.0625 174.191406 89.621094 C 174.554688 89.183594 174.9375 88.761719 175.339844 88.359375 C 175.742188 87.957031 176.164062 87.574219 176.605469 87.214844 C 177.042969 86.855469 177.503906 86.515625 177.976562 86.199219 C 178.449219 85.882812 178.9375 85.59375 179.441406 85.324219 C 179.941406 85.054688 180.457031 84.8125 180.984375 84.59375 C 181.511719 84.378906 182.046875 84.1875 182.59375 84.023438 C 183.136719 83.855469 183.6875 83.71875 184.25 83.609375 C 184.808594 83.496094 185.371094 83.414062 185.9375 83.359375 C 186.503906 83.300781 187.074219 83.273438 187.644531 83.273438 C 188.210938 83.273438 188.78125 83.300781 189.347656 83.359375 C 189.914062 83.414062 190.476562 83.496094 191.039062 83.609375 C 191.597656 83.71875 192.148438 83.855469 192.695312 84.023438 C 193.238281 84.1875 193.773438 84.378906 194.300781 84.59375 C 194.828125 84.8125 195.34375 85.054688 195.84375 85.324219 C 196.347656 85.59375 196.835938 85.882812 197.308594 86.199219 C 197.785156 86.515625 198.242188 86.855469 198.679688 87.214844 C 199.121094 87.574219 199.542969 87.957031 199.945312 88.359375 C 200.347656 88.761719 200.730469 89.183594 201.09375 89.621094 C 201.453125 90.0625 201.792969 90.515625 202.109375 90.988281 C 202.425781 91.464844 202.71875 91.949219 202.988281 92.453125 C 203.257812 92.953125 203.5 93.464844 203.71875 93.992188 C 203.9375 94.515625 204.128906 95.050781 204.292969 95.597656 C 204.457031 96.140625 204.597656 96.691406 204.707031 97.25 C 204.820312 97.804688 204.902344 98.367188 204.960938 98.933594 C 205.015625 99.5 205.042969 100.066406 205.042969 100.636719 Z M 205.042969 100.636719 " fill-opacity="1" fill-rule="nonzero"/></g><g clip-path="url(#id3)"><path fill="#ffffff" d="M 187.644531 291.617188 C 200.453125 291.617188 210.84375 281.25 210.84375 268.46875 L 164.441406 268.46875 C 164.441406 281.25 174.832031 291.617188 187.644531 291.617188 Z M 187.644531 291.617188 " fill-opacity="1" fill-rule="nonzero"/></g></svg>