<svg xmlns="http://www.w3.org/2000/svg" xmlns:xlink="http://www.w3.org/1999/xlink" width="500" zoomAndPan="magnify" viewBox="0 0 375 374.999991" height="500" preserveAspectRatio="xMidYMid meet" version="1.0"><path fill="#8c52ff" d="M 187.5 0 C 84.109375 0 0 84.109375 0 187.5 C 0 290.890625 84.109375 375 187.5 375 C 290.890625 375 375 290.890625 375 187.5 C 375 84.109375 290.890625 0 187.5 0 Z M 271.710938 227.660156 C 272.9375 214.429688 273.628906 200.96875 273.628906 187.5 C 273.628906 174.03125 272.9375 160.570312 271.710938 147.339844 C 313.679688 157.820312 338.710938 174.738281 338.710938 187.5 C 338.710938 200.261719 313.679688 217.179688 271.710938 227.660156 Z M 187.5 338.710938 C 174.738281 338.710938 157.820312 313.679688 147.339844 271.710938 C 160.570312 272.9375 174.03125 273.628906 187.5 273.628906 C 200.96875 273.628906 214.429688 272.9375 227.660156 271.710938 C 217.179688 313.679688 200.261719 338.710938 187.5 338.710938 Z M 187.5 237.339844 C 170.71875 237.339844 154.996094 236.304688 140.484375 234.515625 C 138.695312 220.003906 137.660156 204.28125 137.660156 187.5 C 137.660156 170.71875 138.695312 154.996094 140.484375 140.484375 C 154.996094 138.695312 170.71875 137.660156 187.5 137.660156 C 204.28125 137.660156 220.003906 138.695312 234.511719 140.484375 C 236.304688 154.996094 237.339844 170.71875 237.339844 187.5 C 237.339844 204.28125 236.304688 220.003906 234.511719 234.515625 C 220.003906 236.304688 204.28125 237.339844 187.5 237.339844 Z M 36.289062 187.5 C 36.289062 174.738281 61.320312 157.820312 103.289062 147.339844 C 102.0625 160.570312 101.371094 174.03125 101.371094 187.5 C 101.371094 200.96875 102.0625 214.429688 103.289062 227.660156 C 61.320312 217.179688 36.289062 200.261719 36.289062 187.5 Z M 187.5 36.289062 C 200.261719 36.289062 217.179688 61.320312 227.660156 103.289062 C 214.429688 102.0625 200.96875 101.371094 187.5 101.371094 C 174.03125 101.371094 160.570312 102.0625 147.339844 103.289062 C 157.820312 61.320312 174.738281 36.289062 187.5 36.289062 Z M 326.414062 127.882812 C 309.285156 119.574219 288.65625 113.214844 266.199219 108.800781 C 261.785156 86.34375 255.425781 65.714844 247.117188 48.585938 C 282.617188 63.878906 311.121094 92.382812 326.414062 127.882812 Z M 127.882812 48.585938 C 119.574219 65.714844 113.214844 86.34375 108.800781 108.800781 C 86.34375 113.214844 65.714844 119.570312 48.585938 127.882812 C 63.878906 92.378906 92.382812 63.878906 127.882812 48.585938 Z M 48.585938 247.117188 C 65.714844 255.425781 86.34375 261.785156 108.800781 266.199219 C 113.214844 288.65625 119.570312 309.285156 127.882812 326.414062 C 92.382812 311.117188 63.882812 282.617188 48.585938 247.117188 Z M 247.117188 326.414062 C 255.429688 309.285156 261.785156 288.65625 266.199219 266.199219 C 288.65625 261.785156 309.285156 255.425781 326.414062 247.117188 C 311.121094 282.617188 282.621094 311.121094 247.117188 326.414062 Z M 247.117188 326.414062 " fill-opacity="1" fill-rule="nonzero"/></svg>